<?xml version="1.0" standalone="no"?>
<!DOCTYPE svg PUBLIC "-//W3C//DTD SVG 20010904//EN"
 "http://www.w3.org/TR/2001/REC-SVG-20010904/DTD/svg10.dtd">
<svg version="1.0" xmlns="http://www.w3.org/2000/svg"
 width="650.000000pt" height="94.000000pt" viewBox="0 0 650.000000 94.000000"
 preserveAspectRatio="xMidYMid meet">

<g transform="translate(0.000000,94.000000) scale(0.100000,-0.100000)"
fill="#000000" stroke="none">
<path d="M1842 737 c-18 -5 -46 -26 -63 -45 -28 -32 -31 -40 -27 -84 6 -58 37
-96 101 -124 97 -42 121 -78 72 -110 -33 -22 -107 -14 -146 15 l-29 22 0 -55
0 -54 51 -12 c57 -14 144 -8 185 12 43 21 67 61 67 113 0 62 -24 92 -108 135
-37 19 -74 45 -82 57 -13 19 -12 24 7 43 19 19 30 21 74 17 28 -3 61 -9 74
-13 22 -6 23 -5 20 37 -3 36 -7 44 -28 50 -37 10 -131 8 -168 -4z"/>
<path d="M3652 737 c-18 -5 -46 -26 -63 -45 -28 -32 -31 -40 -27 -84 6 -58 37
-96 101 -124 97 -42 121 -78 72 -110 -33 -22 -107 -14 -146 15 l-29 22 0 -55
0 -54 51 -12 c57 -14 144 -8 185 12 43 21 67 61 67 113 0 62 -24 92 -108 135
-37 19 -74 45 -82 57 -13 19 -12 24 7 43 19 19 30 21 74 17 28 -3 61 -9 74
-13 22 -6 23 -5 20 37 -3 36 -7 44 -28 50 -37 10 -131 8 -168 -4z"/>
<path d="M130 515 l0 -225 50 0 50 0 0 225 0 225 -50 0 -50 0 0 -225z"/>
<path d="M330 515 l0 -225 50 0 50 0 0 157 0 158 103 -158 102 -157 53 0 52 0
0 225 0 225 -50 0 -50 0 0 -152 0 -153 -100 153 -99 152 -56 0 -55 0 0 -225z"/>
<path d="M840 516 l0 -226 98 0 c131 0 188 17 240 74 93 101 73 284 -38 346
-40 21 -60 25 -172 28 l-128 4 0 -226z m231 121 c42 -28 59 -60 59 -115 0 -95
-53 -152 -142 -152 l-48 0 0 145 0 145 49 0 c33 0 58 -7 82 -23z"/>
<path d="M1312 561 c3 -195 6 -207 69 -253 55 -41 184 -32 238 16 44 39 51 74
51 251 l0 165 -44 0 -43 0 -5 -162 c-5 -161 -5 -161 -32 -185 -36 -30 -80 -30
-111 2 -24 24 -25 28 -25 185 l0 160 -51 0 -50 0 3 -179z"/>
<path d="M2090 700 l0 -40 65 0 65 0 0 -185 0 -185 50 0 50 0 0 185 0 185 65
0 65 0 0 40 0 40 -180 0 -180 0 0 -40z"/>
<path d="M2510 515 l0 -225 50 0 50 0 0 85 c0 82 1 85 23 85 28 0 52 -25 102
-107 l38 -63 59 0 59 0 -61 89 c-33 50 -67 94 -77 99 -14 8 -12 12 14 25 42
22 65 61 66 114 0 54 -26 93 -74 110 -19 7 -82 12 -141 12 l-108 1 0 -225z
m202 128 c44 -39 6 -103 -62 -103 l-40 0 0 60 0 60 42 0 c24 0 49 -7 60 -17z"/>
<path d="M2930 515 l0 -225 50 0 50 0 0 225 0 225 -50 0 -50 0 0 -225z"/>
<path d="M3192 592 c-29 -81 -66 -182 -82 -225 l-29 -78 56 3 56 3 11 40 12
40 86 3 86 3 14 -43 15 -43 55 -3 55 -3 -80 226 -80 225 -61 0 -61 0 -53 -148z
m168 -119 c0 -2 -25 -3 -55 -3 -30 0 -55 3 -55 6 0 3 12 45 26 92 l26 85 29
-89 c16 -49 29 -90 29 -91z"/>
</g>
</svg>
